<svg style="position: absolute; width: 0; height: 0; overflow: hidden;" aria-hidden="true" version="1.1" xmlns="http://www.w3.org/2000/svg" xmlns:xlink="http://www.w3.org/1999/xlink">
    <defs>
        <symbol id="menu-icon" viewBox="0 0 40 28" stroke-width="3" stroke-linecap="round" >
            <line x1="7.58691" x2="38.5" y1="4.43939" y2="4.43939" />
            <line x1="7.58691" x2="38.5" y1="21.4091" y2="21.4091" />
            <line x1="17.1521" x2="38.4999" y1="12.9243" y2="12.9243" />
        </symbol>
        <symbol id="cross-icon" viewBox="0 0 40 40" stroke-width="3" stroke-linecap="round" stroke-linejoin="round" >
            <path d="M30 10 10 30" />
            <path d="M10 10 30 30" />
        </symbol>
        <symbol id="check-icon" viewBox="0 0 20 20" xmlns="http://www.w3.org/2000/svg">
            <path d="M16.6667 5L7.50001 14.1667L3.33334 10" stroke="white" stroke-width="2" stroke-linecap="round" stroke-linejoin="round"/>
        </symbol>
        <symbol id="arrow-down-icon" viewBox="0 0 20 20" >
            <path d="M10.5919 11.1667c-0.0774 0.0781-0.1696 0.1401-0.2712 0.1825-0.1015 0.0423-0.2104 0.064-0.3204 0.064-0.1101 0-0.219-0.0217-0.3205-0.064-0.1016-0.0424-0.1937-0.1044-0.2712-0.1825l-3.8167-3.825C5.5145 7.2636 5.4223 7.2016 5.3207 7.1593S5.1103 7.0952 5.0003 7.0952 4.7813 7.117 4.6798 7.1593 4.4861 7.2636 4.4086 7.3417C4.2534 7.4979 4.1663 7.7091 4.1663 7.9292s0.0871 0.4314 0.2423 0.5875l3.825 3.825c0.4687 0.4682 1.1042 0.7312 1.7667 0.7312 0.6625 0 1.2979-0.263 1.7666-0.7312l3.825-3.825c0.154-0.1552 0.2408-0.3647 0.2417-0.5833 6e-4-0.1097-0.0204-0.2184-0.0619-0.3199-0.0414-0.1016-0.1025-0.1939-0.1798-0.2718-0.0774-0.0781-0.1696-0.1401-0.2712-0.1824-0.1015-0.0423-0.2104-0.0641-0.3204-0.0641s-0.219 0.0218-0.3205 0.0641c-0.1016 0.0423-0.1937 0.1043-0.2712 0.1824z" />
        </symbol>
        <symbol id="facebook-icon" viewBox="0 0 28 28" >
            <path d="M17.0799 4.0601c0.21 0 0.42 0 0.84 0v3.15c-0.21 0-0.63 0-1.05 0s-0.84 0-1.05 0.21-0.21 0.42-0.21 0.91c0 0.42 0 0.7 0 1.12l2.31 0v2.66h-2.31v11.55h-3.57v-11.62h-1.89v-2.66l1.89 0v-0.91c0-1.54 0.21-2.66 0.63-3.15 0.63-0.91 1.89-1.33 3.78-1.33 0.21 0.07 0.42 0.07 0.63 0.07z" />
        </symbol>
        <symbol id="instagram-icon" viewBox="0 0 28 28" >
            <g>
                <path d="M25.1279 9.4115c-0.0137-0.9401-0.1878-1.8727-0.5212-2.7519-0.5834-1.5014-1.7713-2.6886-3.2752-3.2697-0.8694-0.3267-1.7887-0.5017-2.7191-0.5216C17.4158 2.8149 17.0364 2.8 13.9988 2.8s-3.4269 0-4.6148 0.0683C8.4548 2.8882 7.5355 3.0633 6.6661 3.3899 5.1622 3.971 3.973 5.1582 3.3909 6.6596 3.0638 7.5276 2.8871 8.4453 2.8697 9.373c-0.0535 1.1958-0.0696 1.5746-0.0696 4.6071 0 3.0326 0 3.42 0.0696 4.6072 0.0187 0.9289 0.1941 1.8453 0.5212 2.7159 0.5834 1.5001 1.7713 2.6873 3.2764 3.2684 0.8658 0.3378 1.785 0.529 2.7179 0.5588 1.1979 0.0534 1.5773 0.0696 4.6149 0.0696 3.0375 0 3.4269 0 4.6148-0.0696 0.9292-0.0186 1.8484-0.1937 2.7191-0.5203 1.5039-0.5824 2.6918-1.7696 3.2752-3.2697 0.3271-0.8693 0.5025-1.7857 0.5212-2.7159 0.0535-1.1946 0.0697-1.5734 0.0697-4.6071-25e-4-3.0326-25e-4-3.4175-0.0722-4.6059zM13.9913 19.7149c-3.1769 0-5.7505-2.5694-5.7505-5.741s2.5736-5.7409 5.7505-5.7409c3.1745 0 5.7506 2.5693 5.7506 5.7409s-2.5761 5.741-5.7506 5.741zM19.9707 9.3593c-0.7426 0-1.3409-0.5986-1.3409-1.3387 0-0.7401 0.5983-1.3387 1.3409-1.3387 0.7401 0 1.3397 0.5986 1.3397 1.3387 0 0.7401-0.5996 1.3387-1.3397 1.3387z" />
                <path d="M13.993 17.479c1.9349 0 3.5035-1.5686 3.5035-3.5035s-1.5686-3.5035-3.5035-3.5035-3.5035 1.5686-3.5035 3.5035 1.5686 3.5035 3.5035 3.5035z" />
            </g>
        </symbol>
        <symbol id="youtube-icon" viewBox="0 0 28 28" >
            <path clip-rule="evenodd" d="M21.2101 5.2499c-1.19-0.07-3.64-0.14-7.35-0.14l-0.49 0c-3.57 0-5.95 0.07-7.14 0.21-1.61 0.14-2.73 0.56-3.36 1.12-0.56 0.49-0.98 1.4-1.12 2.59-0.07 0.77-0.14 2.38-0.14 4.83l0 0.35c0 2.31 0.07 3.92 0.21 4.69 0.21 1.12 0.56 1.96 1.26 2.45 0.7 0.56 1.89 0.91 3.57 1.05 1.19 0.07 3.64 0.14 7.35 0.14h0.49c3.57 0 5.95-0.07 7.14-0.21 1.61-0.14 2.73-0.56 3.36-1.12 0.56-0.49 0.98-1.4 1.12-2.59 0.07-0.77 0.14-2.38 0.14-4.83v-0.35c0-2.31-0.07-3.92-0.21-4.69-0.21-1.12-0.56-1.96-1.26-2.45-0.7-0.56-1.89-0.91-3.57-1.05zM18.4801 13.8599l-7.7 4.62v-9.24z" fill-rule="evenodd" />
        </symbol>
    </defs>
</svg>
